<svg width="160" height="58" viewBox="0 0 160 58" fill="none" xmlns="http://www.w3.org/2000/svg">
<path fill-rule="evenodd" clip-rule="evenodd" d="M60 0H100V40H60V0Z" fill="#448BC4"/>
<path fill-rule="evenodd" clip-rule="evenodd" d="M70.9929 5.87752H74.1852V7.28914L73.2089 7.16259V12.1661L72.5264 13.147L71.9259 13.4919V7.28813H70.9929V5.87752ZM74.2677 5.87752H75.6154L76.0918 7.80443L76.5272 5.87752H77.8747L76.6515 10.0968V10.3069H77.2712V10.6167L77.0682 10.598L75.6406 11.5651L75.482 11.5687V10.9491H74.7434V10.3074H75.483L75.4858 9.88146L74.2677 5.87752ZM78.2062 5.87752H80.134C80.6828 5.87752 80.8728 6.46406 80.9838 6.77436C81.0668 7.06041 81.1085 7.35684 81.1081 7.65468C81.113 7.95197 81.0712 8.24816 80.9838 8.53236C80.9048 8.8146 80.7549 9.07195 80.5484 9.27995C80.3635 9.45828 80.1209 9.56441 79.8645 9.57894C79.8232 9.57894 79.4081 9.62482 79.3255 9.62482V8.25304L79.5738 8.25001C79.6173 8.24225 79.6583 8.22464 79.6941 8.19871C79.7298 8.17278 79.7594 8.13919 79.7803 8.10026C79.8331 7.98551 79.8614 7.86102 79.8635 7.73472C79.8575 7.6301 79.8291 7.52794 79.7803 7.43523C79.7312 7.38657 79.673 7.34826 79.6089 7.32254C79.5447 7.29683 79.476 7.2842 79.4069 7.28549C79.3398 7.28549 79.3229 7.29899 79.3245 7.35217V11.1975L78.2052 10.883V5.875L78.2062 5.87752ZM82.4553 5.87752H83.9061L84.8802 10.0968L85.1215 10.9559C84.7581 11.1244 84.3808 11.2613 83.9938 11.3648L83.6984 10.0968H82.5579L82.3376 11.103C81.9761 10.9224 81.6006 10.7712 81.215 10.6507L82.1228 7.20658L82.4553 5.87752ZM82.8491 8.76883H83.4914L83.1387 7.3567L82.8491 8.76883ZM85.6057 5.87752H86.7873V7.80443H87.7819V5.87752H89.005V14.2901L87.7819 13.2544V9.2826H86.7873V12.3044L85.6057 11.3942V5.87752Z" fill="white"/>
<mask id="mask0_43_308" style="mask-type:luminance" maskUnits="userSpaceOnUse" x="70" y="5" width="20" height="10">
<path fill-rule="evenodd" clip-rule="evenodd" d="M70.9929 5.87752H74.1852V7.28914L73.2089 7.16259V12.1661L72.5264 13.147L71.9259 13.4919V7.28813H70.9929V5.87752ZM74.2677 5.87752H75.6154L76.0918 7.80443L76.5272 5.87752H77.8747L76.6515 10.0968V10.3069H77.2712V10.6167L77.0682 10.598L75.6406 11.5651L75.482 11.5687V10.9491H74.7434V10.3074H75.483L75.4858 9.88146L74.2677 5.87752ZM78.2062 5.87752H80.134C80.6828 5.87752 80.8728 6.46406 80.9838 6.77436C81.0668 7.06041 81.1085 7.35684 81.1081 7.65468C81.113 7.95197 81.0712 8.24816 80.9838 8.53236C80.9048 8.8146 80.7549 9.07195 80.5484 9.27995C80.3635 9.45828 80.1209 9.56441 79.8645 9.57894C79.8232 9.57894 79.4081 9.62482 79.3255 9.62482V8.25304L79.5738 8.25001C79.6173 8.24225 79.6583 8.22464 79.6941 8.19871C79.7298 8.17278 79.7594 8.13919 79.7803 8.10026C79.8331 7.98551 79.8614 7.86102 79.8635 7.73472C79.8575 7.6301 79.8291 7.52794 79.7803 7.43523C79.7312 7.38657 79.673 7.34826 79.6089 7.32254C79.5447 7.29683 79.476 7.2842 79.4069 7.28549C79.3398 7.28549 79.3229 7.29899 79.3245 7.35217V11.1975L78.2052 10.883V5.875L78.2062 5.87752ZM82.4553 5.87752H83.9061L84.8802 10.0968L85.1215 10.9559C84.7581 11.1244 84.3808 11.2613 83.9938 11.3648L83.6984 10.0968H82.5579L82.3376 11.103C81.9761 10.9224 81.6006 10.7712 81.215 10.6507L82.1228 7.20658L82.4553 5.87752ZM82.8491 8.76883H83.4914L83.1387 7.3567L82.8491 8.76883ZM85.6057 5.87752H86.7873V7.80443H87.7819V5.87752H89.005V14.2901L87.7819 13.2544V9.2826H86.7873V12.3044L85.6057 11.3942V5.87752Z" fill="white"/>
</mask>
<g mask="url(#mask0_43_308)">
<path fill-rule="evenodd" clip-rule="evenodd" d="M71.0858 16.1453H89.2332L86.8618 14.72L85.3464 13.5326L84.5231 14.0075C83.8002 13.849 83.1729 13.453 82.4811 13.4267L80.9987 13.0574L79.615 13.9548L77.1121 13.1101L75.5633 14.2185H73.6203L72.402 15.4578L71.0858 16.1453Z" fill="white"/>
</g>
<path fill-rule="evenodd" clip-rule="evenodd" d="M70.9929 14.5332H89.005V30.3833C89.005 32.9607 86.3574 33.0435 85.932 33.0435H74.0985C73.6406 33.0435 70.9929 33.1822 70.9929 30.3833V14.5332ZM76.948 19.1962V27.9733H83.0696V19.1962H88.5081V15.0298H71.4896V19.1962H76.948Z" fill="white"/>
<path fill-rule="evenodd" clip-rule="evenodd" d="M72.3358 13.0907L73.5651 11.5294H75.481L77.0299 10.521L79.4767 11.1762L80.8938 10.3884C81.266 10.5314 83.3381 11.5104 83.5627 11.5708L85.1177 10.8934L86.7099 12.1893L89.0075 14.29H70.9934L71.7633 13.5828L72.3358 13.0907ZM86.5395 12.3999L86.5324 12.3947L85.0904 11.2454L83.6132 11.865L83.5844 11.8573C83.3299 11.7917 81.1702 10.7523 80.9513 10.6878L79.5206 11.4866L77.0826 10.8345L75.5854 11.7979H73.6972L72.5216 13.2916L71.9113 13.688L74.0226 12.7344L75.2213 13.3695L76.7057 11.7989L78.5732 13.2239L79.2582 12.3374L80.2366 12.7416C80.3073 12.7416 80.8045 13.0731 80.8045 12.9926L81.4005 11.8871L84.1625 13.0024L85.1104 12.3095L85.6423 12.9962L86.603 12.9807L86.5395 12.3999Z" fill="white"/>
<path d="M2.9687 56.8981H5.11657V49.1175H8.08628V47.1375H0V49.1175H2.96971L2.9687 56.8981ZM14.6398 57.053C17.2605 57.053 18.9214 55.6028 18.9214 52.6465V47.1392H16.7736V52.7306C16.7736 54.2795 15.9789 55.0736 14.668 55.0736C13.3572 55.0736 12.5615 54.2505 12.5615 52.6614V47.1397H10.4157V52.7156C10.4157 55.5877 12.0191 57.052 14.6398 57.052V57.053ZM21.9466 56.8981H24.0935V53.775H25.7533L27.8699 56.8981H30.3808L27.9959 53.4126C28.6284 53.2076 29.1757 52.8004 29.5539 52.2536C29.932 51.7068 30.1198 51.0507 30.0883 50.3866C30.1075 49.9732 30.0435 49.5601 29.8998 49.1721C29.756 48.784 29.5353 48.4289 29.2514 48.1278C28.8668 47.782 28.4168 47.5163 27.9284 47.3464C27.4399 47.1764 26.9229 47.1056 26.4067 47.138H21.9446L21.9466 56.8981ZM24.0935 51.8782V49.0758H26.2282C27.2737 49.0758 27.9142 49.5497 27.9142 50.4698C27.9142 51.3201 27.3151 51.8777 26.2686 51.8777L24.0935 51.8782ZM32.0285 56.8981H34.2167L35.1101 54.709H39.2365L40.1289 56.8981H42.3746L38.1928 47.0678H36.2133L32.0285 56.8981ZM35.8755 52.8127L37.1723 49.6473L38.4701 52.8127H35.8755ZM44.715 56.8981H46.8357V50.6932L51.562 56.8981H53.3892V47.1402H51.2696V53.1488L46.6955 47.1392H44.715V56.8981ZM68.3366 57.053C70.9583 57.053 72.6172 55.6028 72.6172 52.647V47.1392H70.4723V52.7306C70.4723 54.2795 69.6777 55.0731 68.3668 55.0731C67.0559 55.0731 66.2603 54.2505 66.2603 52.6609V47.1392H64.1124V52.7151C64.1129 55.5877 65.7169 57.052 68.3376 57.052L68.3366 57.053ZM75.6444 56.8981H77.764V50.6932L82.4913 56.8981H84.3165V47.1375H82.1969V53.1488L77.6238 47.1385H75.6444V56.8981ZM87.5948 56.8981H89.7417V47.1375H87.5948V56.8981ZM96.1278 56.9678H98.0236L101.971 47.137H99.6561L97.1049 54.0115L94.5527 47.137H92.183L96.1278 56.9678ZM104.313 56.8981H111.745V54.9878H106.446V52.9382H111.049V51.0279H106.446V49.0484H111.676V47.138H104.313V56.8981ZM114.493 56.8981H116.64V53.7745H118.299L120.416 56.8981H122.926L120.542 53.4121C121.174 53.2069 121.721 52.7995 122.099 52.2527C122.477 51.7059 122.665 51.05 122.633 50.3861C122.653 49.9727 122.589 49.5597 122.445 49.1716C122.301 48.7835 122.08 48.4283 121.796 48.1273C121.412 47.7813 120.963 47.5156 120.474 47.3455C119.986 47.1755 119.469 47.1045 118.953 47.137H114.491L114.493 56.8981ZM116.64 51.8782V49.0758H118.773C119.819 49.0758 120.46 49.5497 120.46 50.4698C120.46 51.3201 119.86 51.8777 118.815 51.8777L116.64 51.8782ZM128.882 57.0375C130.988 57.0375 132.464 55.9503 132.464 54.0121C132.464 52.283 131.351 51.5715 129.371 51.0558C127.683 50.6236 127.265 50.4145 127.265 49.7727C127.265 49.2709 127.697 48.895 128.519 48.895C129.443 48.9521 130.328 49.2874 131.058 49.8569L132.173 48.2398C131.146 47.4173 129.863 46.9791 128.548 47.0008C126.554 47.0008 125.131 48.1722 125.131 49.9436C125.131 51.9102 126.4 52.4533 128.366 52.9552C129.998 53.3739 130.332 53.6526 130.332 54.1942C130.332 54.7937 129.803 55.1423 128.924 55.1423C127.841 55.1118 126.805 54.6899 126.009 53.9547L124.741 55.4741C125.882 56.4865 127.357 57.0427 128.882 57.0375ZM135.268 56.8981H137.415V47.1375H135.268V56.8981ZM142.964 56.8981H145.112V49.1175H148.082V47.1375H139.995V49.1175H142.964V56.8981ZM153.311 56.8981H155.458V53.0079L159.211 47.137H156.769L154.4 51.0553L152.07 47.137H149.559L153.311 53.0491V56.8981Z" fill="#448BC4"/>
</svg>
